<svg xmlns="http://www.w3.org/2000/svg" width="256" height="256" viewBox="0 0 256 256" fill="none">
<path d="M 209.38,253.09 H 46.41 C 20.82,253.09 0.09,231.32 0.09,205.72 V 50.93 C 0.09,24.64 21.46,0 46.41,0 H 209.38 C 234.97,0 255.71,22.51 255.71,48.11 L 255.62,205.72 C 255.62,230.62 235.6,253.09 209.38,253.09 Z" fill="url(#paint0_linear_102_218)"/>
<path opacity="0.07" d="M 207.88,109.22 C 207.01,101.39 205.92,93.38 197.72,90.01 C 194.74,88.78 191.56,88.34 188.64,87.92 C 186.32,87.57 182.11,87.29 180.55,85.44 C 178.99,83.58 178.91,79.01 178.11,76.21 C 177.11,72.69 175.91,68.86 172.41,67.01 C 167.88,64.68 162.06,64.96 157.12,63.18 C 153.12,61.76 153.81,58.24 153.56,54.55 C 153.01,46.93 152.14,37.26 144.89,32.34 C 136.18,26.44 120.65,25.86 111.17,31.07 C 101.33,36.51 102.89,47.72 101.66,57.33 C 101.33,59.99 101.41,61.76 98.66,62.82 C 95.91,63.88 92.48,63.81 89.56,64.68 C 82.06,67.01 80.15,72.52 77.82,79.43 C 75.74,86.06 71.12,87.05 64.71,87.92 C 56.79,88.98 51.76,92.88 49.76,100.78 C 47.21,111.28 47.76,123.44 47.76,134.23 C 47.76,143.17 46.81,155.33 53.64,162.52 C 57.07,166.21 61.91,168.21 66.96,168.94 C 70.04,169.44 75.21,168.87 77.9,170.93 C 81.23,173.45 80.73,180.21 83.65,184.18 C 87.22,189.04 92.64,191.17 97.71,194.14 C 104.13,197.83 102.72,203.13 104.13,209.62 C 106.78,221.92 116.96,226.91 129.13,226.56 C 137.63,226.28 147.72,223.89 150.88,214.95 C 152.88,209.19 150.63,202.01 155.27,197.22 C 158.93,193.39 164.76,191.76 168.76,187.5 C 172.58,183.46 174.58,179.06 176.75,173.99 C 178.91,168.94 181.49,169.36 186.66,168.87 C 194.58,168.14 201.22,166.08 205.55,158.75 C 209.88,151.42 208.88,139.05 208.88,130.7 C 208.88,123.66 208.63,116.4 207.88,109.22 Z" fill="#38BDF8"/>
<path opacity="0.07" d="M 66.96,70.12 H 68.71 C 71.37,70.12 72.71,71.75 72.71,73.81 V 78.8 C 72.71,80.86 71.04,82.49 68.96,82.49 H 66.79 C 64.54,82.49 62.88,80.71 62.88,78.65 V 74.16 C 62.88,71.96 64.71,70.12 66.96,70.12 Z" fill="#38BDF8"/>
<path d="M 181.41,106.56 H 185.33 C 187.41,106.56 187.74,107.91 187.74,109.4 V 146.62 C 187.74,148.32 187.08,149.38 185.41,149.38 H 179.58 C 177.92,149.38 176.75,148.32 176.75,146.76 V 109.4 C 176.75,107.77 177.75,106.56 179.41,106.56 H 181.41 Z" fill="#38F8E8" stroke="#1BD9D2" stroke-width="0.75" stroke-miterlimit="10"/>
<path d="M 71.62,106.56 H 76.28 C 78.28,106.56 78.94,107.84 78.94,109.22 V 146.76 C 78.94,148.32 77.94,149.38 76.61,149.38 H 70.45 C 68.79,149.38 68.04,147.96 68.04,146.41 V 109.19 C 68.04,107.63 68.71,106.56 70.37,106.56 H 71.62 Z" fill="#38F8E8" stroke="#1BD9D2" stroke-width="0.75" stroke-miterlimit="10"/>
<path d="M 157.68,81.92 H 151.76 C 149.76,81.92 149.01,83.23 149.01,84.86 V 152.74 C 149.01,162.96 140.68,170.36 131.43,170.36 H 124.7 C 114.21,170.36 106.62,162.46 106.62,152.52 V 84.93 C 106.62,83.16 105.62,82 103.97,82 H 98.54 C 96.71,82 95.71,83.23 95.71,84.79 V 153.16 C 95.71,167.78 107.21,181.21 122.74,181.21 V 204.76 C 122.74,206.61 123.82,207.41 125.24,207.41 H 130.16 C 131.82,207.41 132.67,206.35 132.67,204.72 V 181.21 C 147.02,180.34 159.76,167.57 159.76,153.44 V 84.65 C 159.84,83.02 158.93,81.92 157.68,81.92 Z" fill="#38F8E8" stroke="#1BD9D2" stroke-width="0.75" stroke-miterlimit="10"/>
<path d="M 130.68,47.3 H 125.16 C 123.33,47.3 122.66,48.36 122.66,49.92 V 154.44 C 122.66,156.14 123.16,156.94 124.91,156.94 H 130.51 C 132.17,156.94 132.75,155.95 132.75,154.39 V 49.85 C 132.75,48.29 131.92,47.3 130.68,47.3 Z" fill="#38F8E8" stroke="#1BD9D2" stroke-width="0.75" stroke-miterlimit="10"/>
<defs>
<linearGradient id="paint0_linear_102_218" x1="-23.4931" y1="-10.0601" x2="278.931" y2="263.531" gradientUnits="userSpaceOnUse">
<stop stop-color="#1A232B"/>
<stop offset="1" stop-color="#1E242B"/>
</linearGradient>
</defs>
</svg>