<svg xmlns="http://www.w3.org/2000/svg" width="256" height="256" viewBox="0 0 256 256" fill="none">
<path d="M 209.72,253.16 H 45.98 C 20.65,253.16 0.09,231.31 0.09,205.98 V 50.55 C 0.09,25.22 20.74,0 46.07,0 H 209.62 C 234.95,0 255.7,22.41 255.7,47.74 V 206.07 C 255.7,230.38 235.92,253.16 209.72,253.16 Z" fill="#1D222A"/>
<path d="M 229.92,110.96 C 229.46,99.71 224.64,88.74 209.62,88.74 C 201.76,88.74 200.14,86.93 200.14,82.11 C 200.14,67.19 194.23,53.12 172.48,53.12 H 167.75 C 153.21,53.12 140.42,60.13 140.42,76.91 V 99.16 C 138.24,90.13 132.06,86.83 121.83,86.83 C 116.73,86.83 115.01,85.31 115.01,79.84 V 62.3 C 115.01,47.76 107.06,37.81 91.28,37.81 H 80.41 C 64.18,37.81 56.23,46.48 56.23,61.02 V 97.82 C 56.23,103.73 55.07,104.52 46.5,104.52 C 35.25,104.52 25.96,111.15 25.96,125.03 V 193.71 C 25.96,208.35 34.01,217.11 51.12,217.11 H 203.07 C 220.81,217.11 229.92,208.07 229.92,196.07 V 110.96 Z" fill="url(#paint0_radial_124_387)"/>
<path d="M 93.56,57.61 H 76.45 C 74.45,57.61 73.8,59.51 73.8,60.76 V 66.13 C 73.8,67.94 75.06,69.19 76.54,69.19 H 93.46 C 95.27,69.19 95.92,67.38 95.92,66.13 V 60.48 C 95.92,58.86 94.76,57.61 93.56,57.61 Z" fill="#3FFFE9"/>
<path d="M 93.37,73.57 H 76.54 C 74.73,73.57 73.8,75.38 73.8,76.73 V 82.2 C 73.8,83.92 75.15,85.26 76.63,85.26 H 93.37 C 95.18,85.26 95.92,83.54 95.92,82.2 V 76.73 C 95.92,75.11 94.76,73.57 93.37,73.57 Z" fill="#3FFFE9"/>
<path d="M 93.37,90.22 H 76.54 C 74.73,90.22 73.8,92.12 73.8,93.37 V 98.75 C 73.8,100.46 75.15,101.71 76.63,101.71 H 93.37 C 95.18,101.71 95.92,99.9 95.92,98.65 V 93.09 C 95.92,91.47 94.76,90.22 93.37,90.22 Z" fill="#3FFFE9"/>
<path d="M 93.37,106.77 H 76.54 C 74.73,106.77 73.8,108.58 73.8,109.83 V 115.3 C 73.8,117.11 75.15,118.36 76.63,118.36 H 93.37 C 95.18,118.36 95.92,116.64 95.92,115.39 V 109.74 C 95.92,108.12 94.76,106.77 93.37,106.77 Z" fill="#3FFFE9"/>
<path d="M 93.37,122.83 H 76.54 C 74.73,122.83 73.8,124.64 73.8,125.89 V 131.36 C 73.8,133.08 75.15,134.33 76.63,134.33 H 93.37 C 95.18,134.33 95.92,132.61 95.92,131.27 V 125.7 C 95.92,124.08 94.76,122.83 93.37,122.83 Z" fill="#3FFFE9"/>
<path d="M 122.39,106.77 H 105.56 C 103.75,106.77 102.82,108.58 102.82,109.83 V 115.3 C 102.82,117.11 104.17,118.36 105.65,118.36 H 122.39 C 124.2,118.36 124.94,116.64 124.94,115.39 V 109.74 C 124.94,108.12 123.78,106.77 122.39,106.77 Z" fill="#3FFFE9"/>
<path d="M 122.39,122.65 H 105.56 C 103.75,122.65 102.82,124.46 102.82,125.71 V 131.18 C 102.82,132.89 104.17,134.15 105.65,134.15 H 122.39 C 124.2,134.15 124.94,132.43 124.94,131.08 V 129.18 V 125.52 C 124.94,123.99 123.78,122.65 122.39,122.65 Z" fill="#3FFFE9"/>
<path d="M 150.61,138.21 H 133.78 C 131.97,138.21 130.94,139.83 130.94,141.18 V 146.65 C 130.94,148.37 132.38,149.62 133.87,149.62 H 150.61 C 152.42,149.62 153.16,147.9 153.16,146.56 V 141.09 C 153.16,139.46 152,138.21 150.61,138.21 Z" fill="#3FFFE9"/>
<path d="M 179.63,106.77 H 162.8 C 160.99,106.77 160.06,108.58 160.06,109.83 V 115.3 C 160.06,117.11 161.41,118.36 162.89,118.36 H 179.63 C 181.44,118.36 182.18,116.64 182.18,115.39 V 109.74 C 182.18,108.12 181.02,106.77 179.63,106.77 Z" fill="#3FFFE9"/>
<path d="M 179.63,90.22 H 162.8 C 160.99,90.22 160.06,92.03 160.06,93.28 V 98.75 C 160.06,100.46 161.41,101.71 162.89,101.71 H 179.63 C 181.44,101.71 182.18,99.99 182.18,98.65 V 93.09 C 182.18,91.47 181.02,90.22 179.63,90.22 Z" fill="#3FFFE9"/>
<path d="M 179.63,73.67 H 162.8 C 160.99,73.67 160.06,75.48 160.06,76.73 V 82.2 C 160.06,83.92 161.41,85.17 162.89,85.17 H 179.63 C 181.44,85.17 182.18,83.45 182.18,82.11 V 76.55 C 182.18,74.92 181.02,73.67 179.63,73.67 Z" fill="#3FFFE9"/>
<path d="M 179.63,122.83 H 162.8 C 160.99,122.83 160.06,124.64 160.06,125.89 V 131.36 C 160.06,133.08 161.41,134.33 162.89,134.33 H 179.63 C 181.44,134.33 182.18,132.61 182.18,131.27 V 125.7 C 182.18,124.08 181.02,122.83 179.63,122.83 Z" fill="#3FFFE9"/>
<path d="M 208.65,106.77 H 191.82 C 189.92,106.77 189.08,108.58 189.08,109.83 V 115.3 C 189.08,117.11 190.43,118.36 191.91,118.36 H 208.65 C 210.46,118.36 211.2,116.64 211.2,115.39 V 109.74 C 211.2,108.12 209.95,106.77 208.65,106.77 Z" fill="#3FFFE9"/>
<path d="M 208.65,122.83 H 191.82 C 189.92,122.83 189.08,124.64 189.08,125.89 V 131.36 C 189.08,133.08 190.43,134.33 191.91,134.33 H 208.65 C 210.46,134.33 211.2,132.61 211.2,131.27 V 125.7 C 211.2,124.08 209.95,122.83 208.65,122.83 Z" fill="#3FFFE9"/>
<path d="M 179.63,138.21 H 162.8 C 160.99,138.21 160.06,139.93 160.06,141.18 V 146.65 C 160.06,148.37 161.41,149.62 162.89,149.62 H 179.63 C 181.44,149.62 182.18,147.9 182.18,146.56 V 141 C 182.18,139.38 181.02,138.21 179.63,138.21 Z" fill="#3FFFE9"/>
<path d="M 208.65,138.58 H 191.82 C 189.92,138.58 189.08,140.39 189.08,141.64 V 147.11 C 189.08,148.83 190.43,150.08 191.91,150.08 H 208.65 C 210.46,150.08 211.2,148.36 211.2,147.02 V 141.46 C 211.2,139.83 209.95,138.58 208.65,138.58 Z" fill="#3FFFE9"/>
<path d="M 122.39,138.58 H 105.56 C 103.75,138.58 102.82,140.39 102.82,141.64 V 147.11 C 102.82,148.83 104.17,150.08 105.65,150.08 H 122.39 C 124.2,150.08 124.94,148.36 124.94,147.02 V 141.46 C 124.94,139.83 123.78,138.58 122.39,138.58 Z" fill="#3FFFE9"/>
<path d="M 93.65,138.58 H 75.91 C 74.42,138.58 73.68,140.39 73.68,141.64 V 147.11 C 73.68,148.83 74.93,150.08 76.37,150.08 H 93.48 C 95.29,150.08 96.03,148.36 96.03,147.02 V 141.46 C 96.03,139.83 94.96,138.58 93.65,138.58 Z" fill="#3FFFE9"/>
<path d="M 63.81,122.65 H 47.85 C 46.04,122.65 45.11,124.46 45.11,125.71 V 130.53 C 45.11,132.71 46.64,133.96 48.08,133.96 H 63.72 C 65.8,133.96 66.36,132.24 66.36,130.9 V 125.34 C 66.36,123.9 65.29,122.65 63.81,122.65 Z" fill="#3FFFE9"/>
<path d="M 64.18,138.31 H 47.72 C 46.01,138.31 45.07,139.93 45.07,141.28 V 146.75 C 45.07,148.46 46.42,149.72 47.9,149.72 H 64.18 C 65.99,149.72 66.73,147.99 66.73,146.65 V 141.09 C 66.73,139.47 65.57,138.31 64.18,138.31 Z" fill="#3FFFE9"/>
<path d="M 64.18,154.55 H 47.72 C 46.01,154.55 45.07,156.17 45.07,157.61 V 163.08 C 45.07,164.8 46.42,166.05 47.9,166.05 H 64.18 C 65.99,166.05 66.73,164.33 66.73,162.99 V 157.43 C 66.73,155.81 65.57,154.55 64.18,154.55 Z" fill="#3FFFE9"/>
<path d="M 64.18,171.47 H 47.72 C 46.01,171.47 45.07,173.09 45.07,174.53 V 179.26 C 45.07,181.07 46.42,182.32 47.9,182.32 H 64.18 C 65.99,182.32 66.73,180.6 66.73,179.26 V 174.53 C 66.73,172.81 65.57,171.47 64.18,171.47 Z" fill="#3FFFE9"/>
<path d="M 64.18,187.43 H 47.72 C 46.01,187.43 45.07,189.06 45.07,190.5 V 195.97 C 45.07,197.68 46.42,198.93 47.9,198.93 H 64.18 C 65.99,198.93 66.73,197.21 66.73,195.87 V 190.31 C 66.73,188.69 65.57,187.43 64.18,187.43 Z" fill="#3FFFE9"/>
<path d="M 93.37,154.46 H 76.54 C 74.73,154.46 73.8,156.27 73.8,157.52 V 162.99 C 73.8,164.71 75.15,165.96 76.63,165.96 H 93.37 C 95.18,165.96 95.92,164.24 95.92,162.9 V 157.34 C 95.92,155.72 94.76,154.46 93.37,154.46 Z" fill="#3FFFE9"/>
<path d="M 122.49,154.46 H 105.65 C 103.85,154.46 102.91,156.27 102.91,157.52 V 162.99 C 102.91,164.71 104.26,165.96 105.74,165.96 H 122.49 C 124.29,165.96 125.04,164.24 125.04,162.9 V 157.34 C 125.04,155.72 123.88,154.46 122.49,154.46 Z" fill="#3FFFE9"/>
<path d="M 150.61,154.46 H 133.78 C 131.97,154.46 130.94,156.27 130.94,157.52 V 162.99 C 130.94,164.71 132.38,165.96 133.87,165.96 H 150.61 C 152.42,165.96 153.16,164.24 153.16,162.9 V 157.34 C 153.16,155.72 152,154.46 150.61,154.46 Z" fill="#3FFFE9"/>
<path d="M 179.63,154.46 H 162.8 C 160.99,154.46 160.06,156.27 160.06,157.52 V 162.99 C 160.06,164.71 161.41,165.96 162.89,165.96 H 179.63 C 181.44,165.96 182.18,164.24 182.18,162.9 V 157.34 C 182.18,155.72 181.02,154.46 179.63,154.46 Z" fill="#3FFFE9"/>
<path d="M 208.65,154.83 H 191.82 C 189.92,154.83 189.08,156.64 189.08,157.89 V 163.36 C 189.08,165.08 190.43,166.33 191.91,166.33 H 208.65 C 210.46,166.33 211.2,164.61 211.2,163.27 V 157.71 C 211.2,156.08 209.95,154.83 208.65,154.83 Z" fill="#3FFFE9"/>
<path d="M 93.37,171.47 H 75.91 C 74.42,171.47 73.68,173.19 73.68,174.53 V 179.35 C 73.68,181.07 74.93,182.32 76.37,182.32 H 93.48 C 95.29,182.32 96.03,180.6 96.03,179.26 V 174.53 C 96.03,172.81 94.87,171.47 93.37,171.47 Z" fill="#3FFFE9"/>
<path d="M 122.49,171.47 H 105.65 C 103.85,171.47 102.91,173.19 102.91,174.53 V 179.35 C 102.91,181.07 104.26,182.32 105.74,182.32 H 122.49 C 124.29,182.32 125.04,180.6 125.04,179.26 V 174.53 C 125.04,172.81 123.88,171.47 122.49,171.47 Z" fill="#3FFFE9"/>
<path d="M 150.61,171.47 H 133.78 C 131.97,171.47 130.94,173.19 130.94,174.53 V 179.35 C 130.94,181.07 132.38,182.32 133.87,182.32 H 150.61 C 152.42,182.32 153.16,180.6 153.16,179.26 V 174.53 C 153.16,172.81 152,171.47 150.61,171.47 Z" fill="#3FFFE9"/>
<path d="M 179.63,171.47 H 162.8 C 160.99,171.47 160.06,173.19 160.06,174.53 V 179.35 C 160.06,181.07 161.41,182.32 162.89,182.32 H 179.63 C 181.44,182.32 182.18,180.6 182.18,179.26 V 174.53 C 182.18,172.81 181.02,171.47 179.63,171.47 Z" fill="#3FFFE9"/>
<path d="M 208.65,171.84 H 191.82 C 189.92,171.84 189.08,173.65 189.08,174.9 V 179.72 C 189.08,181.53 190.43,182.78 191.91,182.78 H 208.65 C 210.46,182.78 211.2,181.06 211.2,179.72 V 174.9 C 211.2,173.18 209.95,171.84 208.65,171.84 Z" fill="#3FFFE9"/>
<path d="M 93.37,187.43 H 75.91 C 74.42,187.43 73.68,189.15 73.68,190.49 V 195.87 C 73.68,197.58 74.93,198.65 76.37,198.65 H 93.48 C 95.29,198.65 96.03,197.12 96.03,195.78 V 190.22 C 96.03,188.5 94.87,187.43 93.37,187.43 Z" fill="#3FFFE9"/>
<path d="M 122.49,187.43 H 105.65 C 103.85,187.43 102.91,189.15 102.91,190.49 V 195.87 C 102.91,197.58 104.26,198.65 105.74,198.65 H 122.49 C 124.29,198.65 125.04,197.12 125.04,195.78 V 190.22 C 125.04,188.5 123.88,187.43 122.49,187.43 Z" fill="#3FFFE9"/>
<path d="M 150.61,187.43 H 133.78 C 131.97,187.43 130.94,189.15 130.94,190.49 V 195.87 C 130.94,197.58 132.38,198.65 133.87,198.65 H 150.61 C 152.42,198.65 153.16,197.12 153.16,195.78 V 190.22 C 153.16,188.5 152,187.43 150.61,187.43 Z" fill="#3FFFE9"/>
<path d="M 179.63,187.43 H 162.8 C 160.99,187.43 160.06,189.15 160.06,190.49 V 195.87 C 160.06,197.58 161.41,198.65 162.89,198.65 H 179.63 C 181.44,198.65 182.18,197.12 182.18,195.78 V 190.22 C 182.18,188.5 181.02,187.43 179.63,187.43 Z" fill="#3FFFE9"/>
<path d="M 208.65,187.71 H 191.82 C 189.92,187.71 189.08,189.52 189.08,190.77 V 196.24 C 189.08,197.96 190.43,199.21 191.91,199.21 H 208.65 C 210.46,199.21 211.2,197.49 211.2,196.15 V 190.59 C 211.2,188.96 209.95,187.71 208.65,187.71 Z" fill="#3FFFE9"/>
<defs>
<radialGradient id="paint0_radial_124_387" cx="0" cy="0" r="1" gradientUnits="userSpaceOnUse" gradientTransform="translate(127.941 127.462) scale(135.429 135.429)">
<stop stop-color="#0E1623"/>
<stop offset="1" stop-color="#1D222A"/>
</radialGradient>
</defs>
</svg>