<svg xmlns="http://www.w3.org/2000/svg" width="256" height="256" viewBox="0 0 256 256" fill="none">
<path d="M 206.78,4.91 H 49.22 C 25.07,4.91 5.41,24.96 5.41,49.5 V 205.68 C 5.41,229.83 25.07,250.21 49.22,250.21 H 206.45 C 230.6,250.21 250.59,229.83 250.59,205.34 V 49.5 C 250.59,24.96 230.93,4.91 206.78,4.91 Z" fill="url(#paint0_radial_113_2082)"/>
<path opacity="0.05" d="M 127.62,228.21 C 182.03,228.21 226.21,184.03 226.21,129.62 C 226.21,75.21 182.03,27.88 127.62,27.88 C 73.21,27.88 27.78,71.73 27.78,129.62 C 27.78,184.03 72.24,228.21 127.62,228.21 Z" fill="url(#paint1_radial_113_2082)"/>
<path opacity="0.05" d="M 127.55,215.6 C 173.81,215.6 212.62,176.79 212.62,130.53 C 212.62,84.27 173.81,48.11 127.55,48.11 C 81.29,48.11 43.74,86.27 43.74,130.53 C 43.74,176.79 81.29,215.6 127.55,215.6 Z" fill="url(#paint2_radial_113_2082)"/>
<path opacity="0.05" d="M 127.38,205.61 C 168.96,205.61 202.72,171.85 202.72,130.27 C 202.72,88.69 168.96,57.01 127.38,57.01 C 85.8,57.01 55.21,90.11 55.21,130.27 C 55.21,171.85 86.89,205.61 127.38,205.61 Z" fill="url(#paint3_radial_113_2082)"/>
<path d="M 127.09,46.09 C 82.53,46.09 46.75,82.61 46.75,128.51 C 46.75,173.36 82.92,209.14 126.76,209.14 C 172.32,209.14 209.17,172.97 209.17,128.84 C 209.17,84.31 173.69,46.09 127.09,46.09 Z M 126.76,200.54 C 86.91,200.54 54.9,167.51 54.9,128.68 C 54.9,88.83 87.24,54.46 127.09,54.46 C 167.91,54.46 200.25,87.16 200.25,127.66 C 200.25,167.18 167.58,200.54 126.76,200.54 Z" fill="#3FFFE9"/>
<path d="M 189.92,125.41 H 179.11 C 177.78,125.41 176.56,126.16 175.93,127.42 L 172.63,133.66 L 166.39,113.43 C 165.74,111.21 164.61,110.33 162.91,110.33 C 161.08,110.33 159.72,111.67 159.22,114.01 L 152.98,140.21 L 146.86,118.19 C 146.11,116.14 144.81,115.77 143.48,115.77 C 141.65,115.77 140.32,116.91 139.76,119.13 L 133.87,138.71 L 126.96,88.99 C 126.47,86.67 125.23,85.71 123.65,85.71 C 121.51,85.71 120.42,87.04 120.09,89.87 L 113.51,148.17 L 107.27,105.81 C 106.78,103.49 105.36,102.53 103.61,102.53 C 101.78,102.53 100.53,103.66 99.97,106.14 L 93.31,136.41 L 87.6,117.16 C 86.73,115.11 85.72,114.46 84.21,114.46 C 82.87,114.46 81.82,115.34 80.85,117.25 L 75.55,125.74 H 65.13 C 62.89,125.74 62.31,127.34 62.31,128.31 C 62.31,129.73 63.44,130.78 65.05,130.78 H 76.97 C 78.62,130.78 79.31,130.33 80.18,128.84 L 83.8,123.03 L 90.04,146.15 C 90.77,148.37 92.11,149.13 93.68,149.13 C 95.51,149.13 96.76,147.88 97.32,145.32 L 103.12,118.11 L 109.86,167.34 C 110.35,169.48 111.6,170.13 113.02,170.13 C 114.85,170.13 116.18,168.88 116.51,166.13 L 124.14,107.42 L 129.36,148.25 C 129.77,150.72 131.02,151.77 132.85,151.77 C 134.68,151.77 135.85,150.72 136.58,148.25 L 143.04,127.01 L 149.42,150.13 C 150.06,152.26 151.31,153.31 152.96,153.31 C 154.71,153.31 155.96,152.18 156.61,149.42 L 163.43,122.12 L 169.06,139.63 C 169.83,141.85 170.96,142.82 172.47,142.82 C 173.72,142.82 174.97,141.85 176.12,139.72 L 181.26,130.41 H 189.92 C 192.06,130.41 192.71,128.91 192.71,127.86 C 192.71,126.44 191.56,125.41 189.92,125.41 Z" fill="#3FFFE9"/>
<defs>
<radialGradient id="paint0_radial_113_2082" cx="0" cy="0" r="1" gradientUnits="userSpaceOnUse" gradientTransform="translate(127.999 127.561) scale(278.047 278.047)">
<stop stop-color="#08141A"/>
<stop offset="1" stop-color="#202930"/>
</radialGradient>
<radialGradient id="paint1_radial_113_2082" cx="0" cy="0" r="1" gradientUnits="userSpaceOnUse" gradientTransform="translate(126.996 128.045) scale(98.5091 98.5091)">
<stop stop-color="#08141A"/>
<stop offset="1" stop-color="#202930"/>
</radialGradient>
<radialGradient id="paint2_radial_113_2082" cx="0" cy="0" r="1" gradientUnits="userSpaceOnUse" gradientTransform="translate(127.178 131.856) scale(84.9072 84.9072)">
<stop stop-color="#08141A"/>
<stop offset="1" stop-color="#202930"/>
</radialGradient>
<radialGradient id="paint3_radial_113_2082" cx="0" cy="0" r="1" gradientUnits="userSpaceOnUse" gradientTransform="translate(127.963 131.309) scale(72.2964 72.2964)">
<stop stop-color="#08141A"/>
<stop offset="1" stop-color="#202930"/>
</radialGradient>
</defs>
</svg>